<svg width="100" height="100" viewBox="0 0 100 100" fill="none" xmlns="http://www.w3.org/2000/svg">
<rect width="100" height="100" fill="#1E1E1E"/>
<rect width="100" height="100" fill="#B9C7BD"/>
<path d="M12.052 9.528C12.668 8.1 14.306 6.266 16.77 6.476L14.306 23.5H10.204L10.414 21.442C9.798 22.268 9.392 22.674 8.762 22.884C8.16 23.29 7.53 23.5 6.718 23.5C5.5 23.5 4.464 22.884 3.638 22.072C2.826 21.036 2.406 20.014 2.406 18.376C2.406 16.514 2.826 14.89 4.03 13.448C5.08 12.202 6.494 11.39 8.16 11.39C8.972 11.39 9.588 11.39 10.204 11.796C10.82 12.006 11.45 12.412 11.646 12.832L12.052 9.528ZM11.016 17.144C11.226 16.318 11.016 15.702 10.82 15.086C10.414 14.456 9.994 14.05 9.392 14.05C8.762 14.05 8.16 14.26 7.53 14.89C6.928 15.492 6.718 16.514 6.494 17.564C6.298 18.376 6.494 18.978 6.718 19.608C7.138 20.224 7.53 20.63 8.16 20.63C8.972 20.63 9.588 20.406 9.994 19.804C10.61 19.188 11.016 18.376 11.016 17.144ZM15.0512 23.5L16.4792 14.694C16.8852 12.636 18.7472 11.418 21.1972 11.418L19.3492 23.5H15.0512ZM17.3052 7.736C17.3052 7.12 17.5152 6.686 17.9212 6.084C18.3272 5.664 18.9432 5.468 19.5592 5.468C20.1752 5.468 20.7912 5.664 21.1972 6.084C21.6032 6.504 21.8132 7.12 21.8132 7.736C21.8132 8.338 21.6032 8.954 21.1972 9.36C20.7912 9.766 20.1752 9.976 19.5592 9.976C18.9432 9.976 18.3272 9.766 17.9212 9.36C17.5152 8.954 17.3052 8.338 17.3052 7.736ZM30.992 11.404H34.87C33.316 19.762 32.616 24.536 31.412 26.58C28.472 31.564 22.27 30.122 19.904 26.734L23.11 24.69C25.434 26.608 28.108 25.95 29.144 21.61C27.212 23.626 24.342 24.452 22.214 21.82C21.206 20.812 20.8 19.58 20.8 17.942C20.8 16.108 21.388 14.47 22.634 13.042C23.866 11.81 24.678 11.404 26.512 11.404C28.276 11.404 29.396 11.992 30.586 13.448L30.992 11.404ZM29.97 16.99C29.97 15.912 29.34 13.924 27.926 13.924C27.31 13.924 26.708 14.134 26.092 14.946C25.126 15.912 24.902 18.474 25.686 19.65C26.428 20.742 28.164 20.812 28.962 19.65C29.564 19.034 29.774 18.012 29.97 16.99ZM33.4223 23.5L34.8503 14.694C35.2563 12.636 37.1183 11.418 39.5683 11.418L37.7203 23.5H33.4223ZM35.6763 7.736C35.6763 7.12 35.8863 6.686 36.2923 6.084C36.6983 5.664 37.3143 5.468 37.9303 5.468C38.5463 5.468 39.1623 5.664 39.5683 6.084C39.9743 6.504 40.1843 7.12 40.1843 7.736C40.1843 8.338 39.9743 8.954 39.5683 9.36C39.1623 9.766 38.5463 9.976 37.9303 9.976C37.3143 9.976 36.6983 9.766 36.2923 9.36C35.8863 8.954 35.6763 8.338 35.6763 7.736ZM40.4732 23.514L41.9152 14.498H39.7172L40.3612 11.418H42.3212C42.8532 8.926 45.3032 7.316 47.5572 7.316H47.5992L46.7872 11.418H49.1952L48.5512 14.498H46.3392L44.8972 23.514H40.4732ZM57.5625 11.418H61.5245L59.9425 23.514H55.9105L56.1765 21.694C55.0285 22.814 54.4825 23.5 52.6205 23.5C51.4025 23.5 50.4225 23.094 49.6245 22.1C48.8545 21.12 48.4485 19.93 48.4485 18.334C48.4485 16.36 48.8545 14.764 49.8345 13.588C51.0245 12.412 52.4105 11.418 54.0065 11.418C55.2525 11.418 56.6245 12.16 57.3525 13L57.5625 11.418ZM56.7785 17.144C56.9605 16.36 56.7785 15.59 56.5685 15.17C56.1765 14.582 55.7705 14.19 55.1685 14.19C54.5945 13.994 54.0065 14.372 53.3905 14.974C52.8025 15.59 52.6205 16.36 52.4105 17.564C52.2145 18.334 52.4105 18.936 52.6205 19.538C53.0125 20.126 53.3905 20.322 54.0065 20.532C54.5945 20.532 55.3785 20.322 55.7705 19.734C56.3585 19.146 56.7785 18.138 56.7785 17.144ZM62.9615 10.27C63.3535 8.66 64.9495 6.854 67.5535 7.064L64.9495 23.472H60.7495L62.9615 10.27ZM6.656 64L2.624 50.256H7.36C9.152 58.432 8.816 56.08 9.248 58.8C9.44 58 9.952 57.232 13.04 50.256H16.368C18.048 57.216 18.032 57.392 18.24 58.8C18.496 58.32 18.736 57.6 22.288 50.256H27.248L19.92 64H16.112C14.336 55.76 14.72 57.984 14.24 55.472C14.112 56.176 13.696 56.832 10.208 64H6.656ZM35.73 50.192H40.258L38.45 64.016H33.842L34.146 61.936C32.834 63.216 32.21 64 30.082 64C28.69 64 27.57 63.536 26.658 62.4C25.778 61.28 25.314 59.92 25.314 58.096C25.314 55.84 25.778 54.016 26.898 52.672C28.258 51.328 29.842 50.192 31.666 50.192C33.09 50.192 34.658 51.04 35.49 52L35.73 50.192ZM34.834 56.736C35.042 55.84 34.834 54.96 34.594 54.48C34.146 53.808 33.682 53.36 32.994 53.36C32.338 53.136 31.666 53.568 30.962 54.256C30.29 54.96 30.082 55.84 29.842 57.216C29.618 58.096 29.842 58.784 30.082 59.472C30.53 60.144 30.962 60.368 31.666 60.608C32.338 60.608 33.234 60.368 33.682 59.696C34.354 59.024 34.834 57.872 34.834 56.736ZM50.7643 51.504L49.4363 54.336C48.5243 53.776 47.7563 53.248 46.3803 53.248C45.6923 53.248 44.8443 53.488 44.8443 54.128C44.8443 54.56 45.2763 55.008 46.1563 55.232C47.9323 55.856 50.5403 57.232 50.5403 59.392C50.5403 60.704 49.8843 61.808 48.7963 62.688C47.9003 63.552 46.3803 64 44.8443 64C42.8603 64 40.8923 63.376 39.3563 62.256L40.8923 59.168C41.7723 59.84 42.4283 60.272 43.0843 60.496C43.6123 60.752 45.3083 60.896 45.7083 60.496C45.9323 60.272 46.1563 60.064 46.1563 59.616C46.1563 59.168 45.5003 58.736 44.4123 58.304C43.1963 57.728 41.9163 57.2 41.3243 56.32C40.8923 55.888 40.6683 55.232 40.6683 54.56C40.6683 53.248 41.3243 52.144 42.2203 51.504C43.2923 50.624 44.6203 50.176 46.1563 50.176C47.4363 50.176 49.7403 50.816 50.7643 51.504ZM51.7981 64.016L53.4461 53.712H50.9341L51.6701 50.192H53.9101C54.5181 47.344 57.3181 45.504 59.8941 45.504H59.9421L59.0141 50.192H61.7661L61.0301 53.712H58.5021L56.8541 64.016H51.7981ZM65.4888 57.68V58.352C65.1528 59.808 67.2328 61.712 68.8968 60.624C69.3448 60.384 69.7928 60.16 70.4808 59.248L73.4248 60.848C72.2248 62.32 70.9288 63.312 69.1208 63.792C68.6568 64.016 67.9848 64.016 67.3128 64.016C65.0568 64.016 63.4568 63.552 62.0968 62.416C60.9608 61.312 60.2888 59.712 60.5128 57.68C60.9288 53.696 63.6008 50.192 68.2248 50.192C70.2568 50.192 72.0808 50.88 72.9768 51.792C74.3208 53.152 74.7848 54.512 74.7848 56.32C74.7848 56.544 74.7848 57.216 74.7848 57.68H70.4808H65.4888ZM65.7288 55.408H70.2568C70.2568 54.512 69.7928 53.152 68.4488 52.912C66.8488 52.912 65.9528 54.272 65.7288 55.408ZM2.928 73.376L15.088 73.408L14.432 77.248L2.272 77.216L2.928 73.376ZM16.5296 68.88C16.9776 67.04 18.8016 64.976 21.7776 65.216L18.8016 83.968H14.0016L16.5296 68.88ZM30.8169 70.192H35.3449L33.5369 84.016H28.9289L29.2329 81.936C27.9209 83.216 27.2969 84 25.1689 84C23.7769 84 22.6569 83.536 21.7449 82.4C20.8649 81.28 20.4009 79.92 20.4009 78.096C20.4009 75.84 20.8649 74.016 21.9849 72.672C23.3449 71.328 24.9289 70.192 26.7529 70.192C28.1769 70.192 29.7449 71.04 30.5769 72L30.8169 70.192ZM29.9209 76.736C30.1289 75.84 29.9209 74.96 29.6809 74.48C29.2329 73.808 28.7689 73.36 28.0809 73.36C27.4249 73.136 26.7529 73.568 26.0489 74.256C25.3769 74.96 25.1689 75.84 24.9289 77.216C24.7049 78.096 24.9289 78.784 25.1689 79.472C25.6169 80.144 26.0489 80.368 26.7529 80.608C27.4249 80.608 28.3209 80.368 28.7689 79.696C29.4409 79.024 29.9209 77.872 29.9209 76.736ZM48.6671 71.376C49.9951 72.688 49.6591 75.168 49.3711 76.96L48.2031 83.968H43.5311L44.4751 76.96C44.7791 75.2 44.6671 74.16 42.8271 74.16C40.6351 74.16 40.3151 75.344 39.8191 77.904L38.8751 83.968H34.2031L35.3711 74.384C36.5391 72.288 37.9471 70.672 40.5071 70.672L40.2671 72.992C40.9711 72.288 42.1391 71.376 42.8271 70.896C43.5311 70.432 44.2351 70.192 45.1791 70.192C46.5711 70.192 47.7391 70.672 48.6671 71.376ZM61.0349 68.032C61.7389 66.4 63.6109 64.304 66.4269 64.544L63.6109 84H58.9229L59.1629 81.648C58.4589 82.592 57.9949 83.056 57.2749 83.296C56.5869 83.76 55.8669 84 54.9389 84C53.5469 84 52.3629 83.296 51.4189 82.368C50.4909 81.184 50.0109 80.016 50.0109 78.144C50.0109 76.016 50.4909 74.16 51.8669 72.512C53.0669 71.088 54.6829 70.16 56.5869 70.16C57.5149 70.16 58.2189 70.16 58.9229 70.624C59.6269 70.864 60.3469 71.328 60.5709 71.808L61.0349 68.032ZM59.8509 76.736C60.0909 75.792 59.8509 75.088 59.6269 74.384C59.1629 73.664 58.6829 73.2 57.9949 73.2C57.2749 73.2 56.5869 73.44 55.8669 74.16C55.1789 74.848 54.9389 76.016 54.6829 77.216C54.4589 78.144 54.6829 78.832 54.9389 79.552C55.4189 80.256 55.8669 80.72 56.5869 80.72C57.5149 80.72 58.2189 80.464 58.6829 79.776C59.3869 79.072 59.8509 78.144 59.8509 76.736Z" fill="#FFFFF3"/>
</svg>
