<svg width="200" height="200" viewBox="0 0 200 200" fill="none" xmlns="http://www.w3.org/2000/svg">
<rect width="200" height="200" fill="#1E1E1E"/>
<g clip-path="url(#clip0_0_1)">
<rect width="200" height="200" fill="#FFFFF3"/>
<path d="M29.477 174C28.197 174 27.557 173.531 27.557 172.592C27.557 171.824 28.1117 171.312 29.221 171.056L32.165 170.544C35.0663 170.032 36.517 168.368 36.517 165.552V90.288C36.517 88.496 36.2183 87.3013 35.621 86.704C35.109 86.1067 33.957 85.6373 32.165 85.296L29.221 84.784C28.1117 84.528 27.557 84.016 27.557 83.248C27.557 82.3093 28.197 81.84 29.477 81.84H55.333C61.989 81.84 67.749 83.8027 72.613 87.728C77.477 91.568 81.2317 96.9867 83.877 103.984C86.5223 110.981 87.845 119.088 87.845 128.304C87.845 137.605 86.437 145.669 83.621 152.496C80.8903 159.323 77.0077 164.613 71.973 168.368C66.9383 172.123 60.965 174 54.053 174H29.477ZM54.565 170.672C62.1597 170.672 67.9197 167.045 71.845 159.792C75.8557 152.539 77.861 142.043 77.861 128.304C77.861 114.651 75.941 104.069 72.101 96.56C68.3463 88.9653 62.757 85.168 55.333 85.168C48.8477 85.168 45.605 88.2827 45.605 94.512V161.328C45.605 164.741 46.2877 167.173 47.653 168.624C49.1037 169.989 51.4077 170.672 54.565 170.672ZM146.796 175.28C146.455 175.28 146.113 175.152 145.772 174.896C145.431 174.64 145.175 174.085 145.004 173.232L135.148 133.552C135.063 132.869 134.807 132.571 134.38 132.656C133.953 132.656 133.655 132.955 133.484 133.552L122.476 173.232C122.22 174.085 121.921 174.64 121.58 174.896C121.324 175.152 121.025 175.28 120.684 175.28C120.343 175.28 119.959 175.152 119.532 174.896C119.191 174.64 118.935 174.085 118.764 173.232L98.54 92.08C97.9427 89.6907 97.26 88.0267 96.492 87.088C95.8093 86.1493 94.6147 85.5093 92.908 85.168L90.988 84.784C89.7933 84.528 89.196 83.9733 89.196 83.12C89.196 82.2667 89.836 81.84 91.116 81.84H111.724C112.919 81.84 113.516 82.3093 113.516 83.248C113.516 84.016 112.876 84.528 111.596 84.784L110.188 85.04C108.737 85.296 107.799 85.808 107.372 86.576C107.031 87.2587 107.073 88.5387 107.5 90.416L122.604 152.88C122.775 153.477 123.031 153.776 123.372 153.776C123.799 153.776 124.097 153.477 124.268 152.88L130.028 132.016C130.967 128.773 131.436 125.787 131.436 123.056C131.436 120.325 131.009 117.296 130.156 113.968L124.78 92.08C124.183 89.6907 123.585 87.984 122.988 86.96C122.476 85.936 121.751 85.3387 120.812 85.168L118.892 84.784C117.697 84.528 117.1 83.9733 117.1 83.12C117.1 82.2667 117.74 81.84 119.02 81.84H136.556C137.751 81.84 138.348 82.3093 138.348 83.248C138.348 84.016 137.708 84.528 136.428 84.784L135.02 85.04C133.911 85.2107 133.228 85.68 132.972 86.448C132.801 87.216 132.929 88.5387 133.356 90.416L137.708 108.72C137.879 109.317 138.135 109.616 138.476 109.616C138.903 109.616 139.201 109.317 139.372 108.72L143.98 93.104C144.919 89.8613 145.26 87.728 145.004 86.704C144.833 85.68 144.364 85.1253 143.596 85.04L142.188 84.784C140.908 84.528 140.268 84.016 140.268 83.248C140.268 82.3093 140.865 81.84 142.06 81.84H154.22C155.671 81.84 156.396 82.3093 156.396 83.248C156.396 84.1013 155.671 84.6133 154.22 84.784L152.812 84.912C151.703 84.9973 150.764 85.68 149.996 86.96C149.313 88.24 148.545 90.3307 147.692 93.232L142.828 110C141.889 113.157 141.377 116.144 141.292 118.96C141.292 121.691 141.676 124.72 142.444 128.048L148.204 152.112C148.375 152.709 148.631 153.008 148.972 153.008C149.399 153.008 149.655 152.709 149.74 152.112L164.46 93.104C165.655 88.1547 164.887 85.4667 162.156 85.04L160.748 84.784C159.468 84.528 158.828 83.9733 158.828 83.12C158.828 82.2667 159.425 81.84 160.62 81.84H174.956C176.407 81.84 177.132 82.3093 177.132 83.248C177.132 84.1013 176.407 84.6133 174.956 84.784L173.548 84.912C172.439 84.9973 171.457 85.68 170.604 86.96C169.836 88.1547 169.111 90.2453 168.428 93.232L148.588 173.232C148.417 174.085 148.161 174.64 147.82 174.896C147.479 175.152 147.137 175.28 146.796 175.28Z" fill="#070707"/>
</g>
<defs>
<clipPath id="clip0_0_1">
<rect width="200" height="200" fill="white"/>
</clipPath>
</defs>
</svg>
